<svg xmlns="http://www.w3.org/2000/svg" viewBox="0 0 64 64" fill="none">
  <rect width="64" height="64" rx="14" fill="#2d6a4f"/>
  <circle cx="32" cy="32" r="18" stroke="#52b788" stroke-width="2" opacity="0.6"/>
  <circle cx="32" cy="32" r="12" stroke="#52b788" stroke-width="1.5" opacity="0.4"/>
  <line x1="14" y1="32" x2="50" y2="32" stroke="#52b788" stroke-width="1.5" opacity="0.5"/>
  <path d="M32 20 C32 20 24 26 24 32 C24 36.5 27.6 40 32 40 C36.4 40 40 36.5 40 32 C40 26 32 20 32 20Z" fill="#52b788" opacity="0.9"/>
  <path d="M32 14 L32 19" stroke="#40916c" stroke-width="2" stroke-linecap="round"/>
  <path d="M30 13 C30 13 28 11 32 10 C36 11 34 13 32 13" fill="#52b788" opacity="0.8"/>
  <circle cx="32" cy="32" r="3" fill="#d8f3dc" opacity="0.9"/>
</svg>
